<svg xmlns="http://www.w3.org/2000/svg" width="14" height="20" viewBox="0 0 14 20">
  <g id="Сгруппировать_2702" data-name="Сгруппировать 2702" transform="translate(-175.161 -241)">
    <g id="Сгруппировать_2418" data-name="Сгруппировать 2418" transform="translate(175.161 241)">
      <path id="Контур_700" data-name="Контур 700" d="M58.122,1.2l-1.989,9-1.989-.4L55.934,2H46.487l1.691,7.8-1.989.4L44.2,1.2a.78.78,0,0,1,.2-.8,1.025,1.025,0,0,1,.8-.4H57.127a.9.9,0,0,1,.8.4A.78.78,0,0,1,58.122,1.2Z" transform="translate(-44.161 0)" fill="#d4aa5f"/>
      <g id="Сгруппировать_2417" data-name="Сгруппировать 2417" transform="translate(0.984 7.172)">
        <path id="Контур_701" data-name="Контур 701" d="M55.144,19.994c-.2,0-.3,0-.4-.1l-3.58-1.8-3.58,1.8a1.084,1.084,0,0,1-1.094-.1.908.908,0,0,1-.3-1l.895-3.6L45.3,12.6a.912.912,0,0,1,0-1,1.043,1.043,0,0,1,.895-.5h2.387l1.691-3.4a1.026,1.026,0,0,1,1.79,0l1.691,3.4h2.387a1.043,1.043,0,0,1,.895.5.912.912,0,0,1,0,1l-1.79,2.6.895,3.6a.908.908,0,0,1-.3,1A1.432,1.432,0,0,1,55.144,19.994Zm-3.978-4c.2,0,.3,0,.4.1l2.088,1-.5-1.9a1.067,1.067,0,0,1,.1-.8l.994-1.4H53.155a.956.956,0,0,1-.895-.6l-1.094-2.2-1.094,2.2a.87.87,0,0,1-.895.6H48.084l.994,1.4a.758.758,0,0,1,.1.8l-.5,1.9,2.088-1A.6.6,0,0,1,51.166,16Z" transform="translate(-45.15 -7.175)" fill="#d4aa5f"/>
      </g>
    </g>
    <g id="Сгруппировать_2421" data-name="Сгруппировать 2421" transform="translate(180.967 243.799)">
      <path id="Контур_702" data-name="Контур 702" d="M52.586,5c0,.5-.4,1.1-1.392,1.1A2.353,2.353,0,0,1,50,5.8l.3-.7a1.6,1.6,0,0,0,.895.3c.3,0,.5-.1.5-.3s-.1-.3-.5-.3h-.4V4.1l.6-.6H50.1V2.8h2.287v.6l-.7.7Q52.586,4.249,52.586,5Z" transform="translate(-50 -2.8)" fill="#d4aa5f"/>
    </g>
  </g>
</svg>
