<svg id="Сгруппировать_1927" data-name="Сгруппировать 1927" xmlns="http://www.w3.org/2000/svg" width="200" height="43.801" viewBox="0 0 200 43.801">
  <path id="Контур_626" data-name="Контур 626" d="M113.426,19.6a3.029,3.029,0,0,0-3.226,3.013,3.187,3.187,0,1,0,3.226-3.013Z" transform="translate(-14.489 -2.23)" fill="none"/>
  <path id="Контур_627" data-name="Контур 627" d="M96.439,19.6A3.1,3.1,0,0,0,93.3,22.968a3.107,3.107,0,1,0,6.191,0A3.081,3.081,0,0,0,96.439,19.6Z" transform="translate(-12.325 -2.23)" fill="none"/>
  <path id="Контур_628" data-name="Контур 628" d="M131.339,19.6a3.1,3.1,0,0,0-3.139,3.368,3.107,3.107,0,1,0,6.191,0A3.034,3.034,0,0,0,131.339,19.6Z" transform="translate(-16.793 -2.23)" fill="none"/>
  <path id="Контур_629" data-name="Контур 629" d="M165.652,19.6a3.033,3.033,0,0,0-3.052,3.368,3.067,3.067,0,1,0,6.1,0A3.081,3.081,0,0,0,165.652,19.6Z" transform="translate(-21.197 -2.23)" fill="none"/>
  <path id="Контур_630" data-name="Контур 630" d="M222.165,19c-1.57,0-2.7,1.684-2.965,2.57h5.929C224.868,20.684,223.734,19,222.165,19Z" transform="translate(-28.443 -2.162)" fill="none"/>
  <path id="Контур_631" data-name="Контур 631" d="M182.539,19.6a3.1,3.1,0,0,0-3.139,3.368,3.107,3.107,0,1,0,6.191,0A3.081,3.081,0,0,0,182.539,19.6Z" transform="translate(-23.348 -2.23)" fill="none"/>
  <path id="Контур_632" data-name="Контур 632" d="M55.078,24.282h0l.087-.177h0a1.686,1.686,0,0,0-.61-2.127l-.61-.354A17.389,17.389,0,0,0,36.679,4.608h-1.4a5.874,5.874,0,0,1-4.534-1.861A9.444,9.444,0,0,0,25.779.089,6.937,6.937,0,0,0,24.384,0a11.763,11.763,0,0,0-3.139.354.619.619,0,0,0-.349.975,5.18,5.18,0,0,1,.872,2.836A3.849,3.849,0,0,1,20.983,6.2l-2.267,3.1c-1.744,2.481-3.488,5.051-5.057,7.71h0l-3.226,5.76h0v.089h0c-.262.443-.523.975-.785,1.418-.087.089-.087.266-.174.354h0v.089c-1.134,2.216-2.18,4.431-3.226,6.735v.089A12.665,12.665,0,0,0,5.2,35.715c-.349.177-.61.354-.959.532a12.04,12.04,0,0,0-3.75,3.545c-.174.266.087.62.436.62.61-.089,1.221-.177,1.918-.266h.436a7.7,7.7,0,0,1,3.75,1.063A6.569,6.569,0,0,1,9.3,43.6a.4.4,0,0,0,.7,0,4.9,4.9,0,0,0,.436-1.95A6.631,6.631,0,0,0,9.386,37.93a3.45,3.45,0,0,1-.262-3.19v-.089a27.723,27.723,0,0,1,24.59-16.218c.087,0,.174-.089.262-.089h2.878A6.5,6.5,0,0,1,35.458,21a.737.737,0,0,0,.087,1.063,5.129,5.129,0,0,0,3.226,1.152,7.985,7.985,0,0,0,6.278-3.013,44.24,44.24,0,0,1,5.668,2.216h0l3.314,1.861h0l.174.089a.775.775,0,0,0,.436.089C54.642,24.726,54.9,24.548,55.078,24.282Z" transform="translate(-0.436)"/>
  <path id="Контур_633" data-name="Контур 633" d="M79.06,11.9H74.7V28.738H86.908V25.193H79.06Z" transform="translate(-9.944 -1.354)"/>
  <path id="Контур_634" data-name="Контур 634" d="M95.927,16.3c-3.837,0-6.627,2.659-6.627,6.292,0,3.722,2.79,6.292,6.627,6.292s6.627-2.659,6.627-6.292S99.764,16.3,95.927,16.3Zm0,9.748a3.1,3.1,0,0,1-3.139-3.368,3.107,3.107,0,1,1,6.191,0A3.033,3.033,0,0,1,95.927,26.048Z" transform="translate(-11.813 -1.855)"/>
  <path id="Контур_635" data-name="Контур 635" d="M116.228,18.072a4.925,4.925,0,0,0-4.011-1.772,5.819,5.819,0,0,0-6.017,5.938,5.892,5.892,0,0,0,6.1,5.938,5.28,5.28,0,0,0,3.924-1.507V27.2c0,2.216-1.134,3.368-3.662,3.368a7.154,7.154,0,0,1-4.36-1.418l-1.4,2.57a9.893,9.893,0,0,0,6.017,1.684c4.36,0,6.889-2.127,6.889-6.647V16.832h-3.488v1.241Zm-3.314,7.178a3.029,3.029,0,0,1-3.226-3.013,3.187,3.187,0,0,1,6.365,0A2.907,2.907,0,0,1,112.914,25.251Z" transform="translate(-13.976 -1.855)"/>
  <path id="Контур_636" data-name="Контур 636" d="M130.827,16.3c-3.837,0-6.627,2.659-6.627,6.292,0,3.722,2.79,6.292,6.627,6.292s6.627-2.659,6.627-6.292S134.664,16.3,130.827,16.3Zm0,9.748a3.1,3.1,0,0,1-3.139-3.368,3.107,3.107,0,1,1,6.191,0A2.989,2.989,0,0,1,130.827,26.048Z" transform="translate(-16.281 -1.855)"/>
  <path id="Контур_637" data-name="Контур 637" d="M144.911,16.874c0-.975.872-1.861,2.965-1.861a9.332,9.332,0,0,1,4.36,1.241l1.134-2.836A10.174,10.174,0,0,0,147.876,12c-4.447,0-6.627,2.3-6.627,4.963,0,5.938,9.156,3.9,9.156,6.913,0,.975-.872,1.684-3.052,1.684a9.45,9.45,0,0,1-5.232-1.684L140.9,26.623a11.419,11.419,0,0,0,6.453,1.861c4.534,0,6.714-2.3,6.714-4.963C154.067,17.76,144.911,19.8,144.911,16.874Z" transform="translate(-18.419 -1.365)"/>
  <path id="Контур_638" data-name="Контур 638" d="M165.85,16.3a4.359,4.359,0,0,0-3.662,1.6V16.832H158.7V33.67h3.488v-6.2a4.627,4.627,0,0,0,3.575,1.507,5.98,5.98,0,0,0,6.1-6.292C171.867,18.781,169.251,16.3,165.85,16.3Zm-.7,9.748a3.033,3.033,0,0,1-3.052-3.368,3.067,3.067,0,1,1,6.1,0A3.033,3.033,0,0,1,165.153,26.048Z" transform="translate(-20.698 -1.855)"/>
  <path id="Контур_639" data-name="Контур 639" d="M182.027,16.3c-3.837,0-6.627,2.659-6.627,6.292,0,3.722,2.79,6.292,6.627,6.292s6.627-2.659,6.627-6.292S185.864,16.3,182.027,16.3Zm0,9.748a3.1,3.1,0,0,1-3.139-3.368,3.107,3.107,0,1,1,6.191,0A3.033,3.033,0,0,1,182.027,26.048Z" transform="translate(-22.836 -1.855)"/>
  <path id="Контур_640" data-name="Контур 640" d="M196.316,18.171V16.842H193.7V29.249h3.488v-6.2c0-2.393,1.046-3.456,2.965-3.456.262,0,.523,0,.523.089V16.4A5.016,5.016,0,0,0,196.316,18.171Z" transform="translate(-25.178 -1.865)"/>
  <path id="Контур_641" data-name="Контур 641" d="M210.489,25.864a1.5,1.5,0,0,1-1.657-1.6V19.217h3.488V16.559h-3.488V13.9h-3.488v2.659H203.6v2.659h1.744v5.051c0,2.925,1.744,4.431,4.621,4.431a5.01,5.01,0,0,0,2.878-.8l-.959-2.481A2.195,2.195,0,0,1,210.489,25.864Z" transform="translate(-26.446 -1.582)"/>
  <path id="Контур_642" data-name="Контур 642" d="M227.931,22.869a6.069,6.069,0,0,0-6.278-6.469,6.216,6.216,0,0,0-6.453,6.292c0,3.634,2.7,6.292,6.889,6.292a6.2,6.2,0,0,0,4.97-2.038l-1.831-2.038a4.248,4.248,0,0,1-3.052,1.329,3.977,3.977,0,0,1-3.488-2.3h9.156A6.086,6.086,0,0,1,227.931,22.869Zm-9.243-1.6c.262-.886,1.4-2.57,2.965-2.57s2.7,1.684,2.965,2.57Z" transform="translate(-27.931 -1.866)"/>
</svg>
